<?xml version="1.0" standalone="no"?>
<!DOCTYPE svg PUBLIC "-//W3C//DTD SVG 20010904//EN"
 "http://www.w3.org/TR/2001/REC-SVG-20010904/DTD/svg10.dtd">
<svg version="1.0" xmlns="http://www.w3.org/2000/svg"
 width="260.000000pt" height="260.000000pt" viewBox="0 0 260.000000 260.000000"
 preserveAspectRatio="xMidYMid meet">
<metadata>
Created by potrace 1.14, written by Peter Selinger 2001-2017
</metadata>
<g transform="translate(0.000000,260.000000) scale(0.100000,-0.100000)"
fill="#000000" stroke="none">
<path d="M447 2357 c-3 -9 1 -18 9 -21 16 -6 18 2 5 22 -7 11 -9 11 -14 -1z"/>
<path d="M441 2303 c-1 -12 4 -25 9 -28 16 -10 11 -32 -8 -37 -15 -4 -18 -16
-17 -67 0 -67 -7 -73 -49 -40 -22 17 -26 18 -26 4 0 -9 -4 -13 -10 -10 -6 4
-7 -1 -3 -11 4 -11 8 -13 11 -6 8 24 18 11 18 -23 -1 -30 -4 -34 -21 -29 -19
5 -19 4 2 -14 12 -11 19 -22 16 -26 -12 -12 13 -6 26 7 11 10 13 9 9 -3 -2 -8
-14 -19 -26 -25 -29 -13 -28 -20 8 -55 36 -35 44 -89 10 -68 -11 7 -20 17 -20
22 0 4 -9 6 -19 3 -11 -3 -28 1 -38 8 -11 8 -25 10 -32 5 -10 -6 -4 -13 22
-25 36 -17 57 -53 29 -51 -8 0 -17 -5 -19 -11 -3 -8 5 -13 21 -13 18 0 24 -5
23 -20 -1 -18 -2 -18 -21 -2 -11 9 -16 11 -12 5 7 -13 -12 -58 -21 -49 -3 3 0
12 6 20 9 11 10 20 2 35 -6 11 -8 27 -5 35 6 14 -5 21 -28 17 -5 0 -8 8 -8 19
0 11 -4 20 -10 20 -18 0 -11 -66 8 -83 10 -10 22 -14 25 -10 4 3 7 -1 7 -11 0
-11 -4 -14 -12 -10 -7 5 -21 9 -30 9 -13 1 -17 -3 -12 -17 6 -19 -20 -26 -31
-8 -3 6 -12 10 -18 10 -7 0 -3 -8 8 -16 11 -8 19 -20 17 -26 -1 -6 5 -21 13
-35 9 -14 14 -28 10 -31 -3 -4 -10 -1 -14 7 -6 10 -10 8 -16 -6 -5 -10 -7 -24
-6 -30 1 -7 -3 -13 -9 -13 -5 0 -10 4 -10 9 0 5 -7 11 -14 14 -21 8 -8 -24 16
-41 10 -7 18 -17 18 -22 0 -11 -47 7 -71 27 -8 7 -19 13 -24 13 -4 0 15 -23
44 -50 50 -48 60 -76 23 -63 -14 5 -15 3 -4 -8 16 -18 16 -34 -1 -20 -8 6 -17
8 -20 4 -4 -3 -7 3 -7 15 0 24 -15 36 -32 26 -7 -4 -25 -9 -42 -11 l-29 -3 34
23 c19 12 35 33 37 45 4 26 -14 29 -47 6 -22 -16 -23 -16 -12 5 15 27 5 44
-20 38 -27 -7 -23 12 5 22 13 5 33 29 45 52 20 37 20 41 4 28 -10 -8 -23 -20
-29 -28 -6 -8 -16 -11 -24 -6 -9 5 -5 13 14 30 34 30 33 37 -4 19 -16 -9 -34
-13 -40 -9 -7 4 -10 -279 -10 -864 l0 -871 1300 0 1300 0 0 169 c0 164 -1 170
-21 176 -20 7 -59 39 -59 50 0 11 24 4 42 -12 17 -15 18 -15 18 1 0 9 5 14 10
11 6 -3 10 3 10 14 0 13 -5 19 -14 15 -7 -3 -16 2 -19 10 -4 9 -11 16 -17 16
-6 0 -8 -4 -5 -10 3 -5 1 -10 -4 -10 -6 0 -11 7 -11 15 0 8 -4 15 -10 15 -5 0
-10 4 -10 8 0 4 16 8 36 9 26 1 34 -3 30 -12 -3 -9 0 -12 8 -9 7 3 13 19 13
36 0 24 -3 28 -11 16 -10 -14 -41 -16 -54 -4 -3 4 0 12 6 18 14 14 16 32 3 23
-6 -3 -27 -1 -48 3 -28 7 -42 5 -51 -4 -19 -20 -15 -23 25 -17 27 5 34 3 29
-6 -4 -6 -16 -9 -26 -6 -11 3 -20 0 -24 -10 -4 -12 -1 -15 12 -11 13 5 17 -1
18 -24 1 -25 -2 -29 -17 -25 -11 4 -19 2 -19 -5 0 -6 -5 -8 -10 -5 -6 4 -8 11
-4 16 3 6 -2 19 -11 29 -14 16 -15 23 -6 34 10 11 8 17 -6 25 -10 6 -13 11 -6
11 7 0 10 7 6 16 -3 8 -12 13 -19 10 -7 -3 -16 -1 -19 4 -3 6 -20 9 -37 7 -41
-3 -48 19 -9 28 17 4 31 13 31 20 0 18 -17 28 -25 15 -9 -14 -22 -12 -28 4 -9
22 51 18 63 -5 6 -11 9 -23 6 -27 -2 -4 4 -8 15 -8 16 0 19 5 14 28 -6 25 -4
28 19 28 31 0 43 16 16 23 -11 3 -20 0 -20 -5 0 -6 -6 -5 -15 2 -8 7 -12 16
-9 21 2 5 -2 21 -10 36 -14 26 -15 27 -16 6 0 -13 4 -23 8 -23 10 0 9 -30 -1
-47 -9 -15 -47 -4 -47 13 0 18 -5 18 -34 -1 -17 -11 -22 -22 -18 -40 2 -14 9
-25 15 -25 5 0 2 -9 -8 -20 -10 -11 -13 -20 -7 -20 7 0 12 -9 12 -20 0 -11 -4
-20 -10 -20 -5 0 -7 6 -4 14 4 10 -1 15 -13 15 -10 0 -31 2 -48 5 -16 2 -34 5
-38 5 -4 1 1 10 11 21 18 20 52 19 52 -1 0 -6 9 -5 21 1 20 11 20 12 1 28 -11
9 -35 17 -53 17 -19 0 -40 6 -46 15 -10 11 -15 12 -21 3 -6 -10 -36 -11 -95
-4 -5 1 -5 6 -1 13 5 8 2 9 -11 5 -15 -6 -17 -3 -12 20 3 16 -1 32 -10 42 -14
13 -15 11 -8 -17 4 -21 3 -32 -4 -32 -6 0 -10 -6 -9 -12 2 -7 -2 -12 -9 -11
-6 2 -11 -6 -10 -17 1 -18 9 -24 28 -22 4 1 5 -8 2 -18 -6 -24 -7 -24 -38 -4
-24 16 -25 15 -25 -5 0 -11 -3 -21 -7 -22 -5 0 -27 -2 -50 -5 -34 -4 -43 -2
-43 10 0 9 6 16 13 16 15 0 57 44 57 59 0 13 5 14 -52 -4 -27 -8 -48 -11 -48
-7 0 11 57 62 69 62 6 0 11 5 11 11 0 6 -7 9 -15 6 -11 -5 -14 1 -12 23 1 17
8 30 15 30 6 0 12 4 12 10 0 5 23 33 51 62 90 92 143 186 167 293 40 176 6
321 -102 430 -71 72 -101 91 -43 27 72 -79 100 -147 105 -257 11 -236 -116
-444 -333 -549 -91 -44 -148 -57 -270 -65 l-99 -6 -21 -100 -21 -100 -146 -3
-146 -3 19 88 c27 125 28 123 -29 123 -118 0 -261 64 -325 145 -67 84 -90 145
-95 258 -10 209 60 358 216 464 31 21 59 41 62 44 3 4 14 9 25 12 11 3 1 3
-23 0 l-43 -5 3 33 c2 26 9 35 28 39 32 8 90 -9 90 -27 0 -7 5 -13 10 -13 6 0
10 6 10 14 0 7 11 21 25 30 19 13 25 25 25 54 0 52 16 101 41 128 28 30 113
62 186 70 46 6 58 4 68 -10 11 -15 13 -12 19 19 4 20 10 43 13 51 7 19 -51 19
-151 -1 -96 -18 -164 -52 -194 -96 -21 -30 -23 -43 -19 -103 l4 -68 -46 4
c-90 9 -150 56 -152 120 0 22 -1 22 -8 3 -5 -11 -6 -38 -3 -59 5 -36 3 -39
-16 -34 -15 4 -22 2 -22 -9 0 -10 6 -12 20 -8 24 8 27 -10 3 -23 -20 -12 -10
-42 16 -49 12 -3 17 -11 14 -19 -3 -8 0 -14 6 -14 6 0 11 -5 11 -10 0 -6 -3
-9 -7 -9 -5 1 -10 1 -13 -1 -22 -8 -50 -8 -50 0 0 6 -9 10 -19 10 -11 0 -21 5
-23 12 -3 9 -12 9 -36 -1 -35 -15 -58 -6 -29 10 9 6 17 17 17 24 0 8 9 15 20
15 11 0 20 7 20 15 0 12 -8 11 -45 -7 -24 -12 -47 -19 -51 -16 -8 9 33 48 50
48 20 0 28 27 10 34 -10 4 -12 2 -8 -6 5 -7 2 -9 -8 -5 -9 3 -20 2 -25 -1 -5
-4 4 5 19 20 26 26 22 51 -5 30 -20 -15 -59 -22 -53 -9 3 7 9 20 12 30 4 9 12
17 19 17 18 0 38 51 25 64 -7 7 -10 5 -10 -7 0 -10 -5 -14 -15 -11 -9 4 -15 0
-15 -10 0 -9 -3 -15 -7 -15 -32 5 -53 -3 -53 -20 0 -10 -7 -24 -16 -32 -13
-10 -17 -10 -24 2 -7 10 -3 16 11 21 13 5 17 12 13 20 -6 9 -9 9 -12 0 -2 -7
-8 -10 -13 -6 -13 8 -11 41 3 50 7 5 9 2 5 -8 -8 -22 29 -30 48 -11 8 8 19 12
24 9 4 -3 7 6 5 19 -2 26 5 32 22 15 6 -6 14 -2 22 11 12 19 11 20 -9 14 -14
-5 -19 -4 -15 4 5 7 1 9 -8 5 -19 -7 -21 7 -3 25 10 10 7 11 -15 6 -18 -5 -28
-3 -28 4 0 6 7 11 15 11 8 0 15 7 15 15 0 8 5 15 10 15 6 0 10 5 10 12 0 9 -3
9 -12 0 -20 -20 -27 -13 -18 19 8 26 7 29 -5 19 -8 -7 -15 -18 -15 -26 0 -14
-38 -44 -55 -44 -5 0 -2 5 8 11 9 6 15 14 12 20 -4 5 1 9 9 9 9 0 16 4 16 8 0
19 -15 21 -37 7 -13 -9 -23 -13 -23 -10 0 12 29 35 43 35 16 0 16 11 2 43 -4
11 -3 23 4 30 6 6 11 16 11 22 0 5 -7 2 -15 -8 -9 -13 -20 -17 -35 -12 -21 7
-19 20 2 20 6 0 12 12 12 28 1 15 -2 27 -6 27 -4 0 -8 -5 -8 -11 0 -20 -24 -3
-31 22 -7 23 -7 23 -8 2z m39 -124 c0 -5 -4 -9 -10 -9 -5 0 -10 7 -10 16 0 8
5 12 10 9 6 -3 10 -10 10 -16z m-56 -105 c6 -16 -9 -19 -19 -4 -3 5 -13 6 -22
3 -15 -6 -16 -5 -3 9 17 17 36 14 44 -8z m56 -48 c0 -8 -4 -18 -10 -21 -5 -3
-10 3 -10 14 0 12 5 21 10 21 6 0 10 -6 10 -14z m70 -50 c0 -5 -7 -1 -15 10
-8 10 -14 24 -14 29 0 6 6 1 14 -9 8 -11 15 -24 15 -30z m-106 -22 c3 -8 2
-12 -4 -9 -6 3 -10 10 -10 16 0 14 7 11 14 -7z m-4 -89 c0 -8 -4 -15 -8 -15
-5 0 -9 7 -9 15 0 8 4 15 9 15 4 0 8 -7 8 -15z m140 11 c0 -3 -4 -8 -10 -11
-5 -3 -10 -1 -10 4 0 6 5 11 10 11 6 0 10 -2 10 -4z m-45 -86 c3 -6 -1 -7 -9
-4 -18 7 -21 14 -7 14 6 0 13 -4 16 -10z m-88 -6 c-3 -3 -12 -4 -19 -1 -8 3
-5 6 6 6 11 1 17 -2 13 -5z m373 -34 c0 -5 -5 -10 -11 -10 -5 0 -7 5 -4 10 3
6 8 10 11 10 2 0 4 -4 4 -10z m-485 -19 c-3 -6 -11 -11 -16 -11 -5 0 -4 6 3
14 14 16 24 13 13 -3z m228 -32 c-27 -11 -33 -10 -33 5 0 19 22 26 38 13 11
-9 11 -12 -5 -18z m-205 3 c-10 -2 -18 -8 -18 -13 0 -6 -4 -7 -10 -4 -15 9 12
34 30 27 12 -5 12 -7 -2 -10z m119 -14 c2 -17 0 -19 -7 -8 -5 8 -6 18 -4 22 8
12 10 10 11 -14z m-52 -28 c3 -5 1 -10 -4 -10 -6 0 -11 5 -11 10 0 6 2 10 4
10 3 0 8 -4 11 -10z m117 -11 c2 -7 12 -7 32 1 28 10 46 7 33 -7 -13 -12 -90
-8 -94 5 -3 6 2 12 10 12 9 0 17 -5 19 -11z m133 1 c-3 -5 -10 -10 -16 -10 -5
0 -9 5 -9 10 0 6 7 10 16 10 8 0 12 -4 9 -10z m135 -16 c0 -8 -5 -12 -10 -9
-6 4 -8 11 -5 16 9 14 15 11 15 -7z m-350 -12 c0 -13 -12 -22 -22 -16 -10 6
-1 24 13 24 5 0 9 -4 9 -8z m64 -36 c-8 -20 -18 -20 -35 0 -12 15 -11 16 9 10
15 -5 22 -3 22 5 0 7 2 10 5 7 3 -3 3 -13 -1 -22z m-144 4 c0 -5 -4 -10 -10
-10 -5 0 -10 5 -10 10 0 6 5 10 10 10 6 0 10 -4 10 -10z m45 -30 c3 -5 2 -10
-4 -10 -5 0 -13 5 -16 10 -3 6 -2 10 4 10 5 0 13 -4 16 -10z m115 -64 c0 -3
-4 -8 -10 -11 -5 -3 -10 -1 -10 4 0 6 5 11 10 11 6 0 10 -2 10 -4z m-382 -38
c9 -9 5 -17 -15 -36 -17 -15 -29 -20 -31 -13 -2 6 -8 9 -13 5 -5 -3 -9 -1 -9
4 0 17 13 22 28 9 13 -10 15 -9 9 6 -12 32 8 48 31 25z m1946 -828 c16 -9 31
-23 33 -30 3 -10 0 -9 -10 3 -14 17 -15 16 -21 -8 -7 -27 -13 -30 -36 -14 -11
8 -12 12 -2 16 22 9 13 24 -12 17 -16 -4 -25 -1 -29 10 -4 10 -1 16 9 16 8 0
12 4 9 10 -7 12 17 4 59 -20z m-674 10 c0 -5 -7 -10 -15 -10 -8 0 -15 5 -15
10 0 6 7 10 15 10 8 0 15 -4 15 -10z m505 -89 c-3 -11 -1 -22 5 -26 15 -9 12
-25 -4 -25 -8 0 -17 7 -20 16 -5 14 -9 14 -22 3 -9 -7 -26 -15 -37 -16 -21 -3
-20 -2 3 14 14 9 27 20 30 23 5 7 42 29 48 30 2 0 1 -9 -3 -19z m49 -2 c-8
-14 -24 -10 -24 6 0 9 6 12 15 9 8 -4 12 -10 9 -15z m241 -19 c-14 -15 -21
-17 -26 -8 -9 15 -1 30 12 22 5 -3 9 -2 8 3 -3 20 2 26 13 15 9 -9 7 -16 -7
-32z m-145 20 c0 -5 7 -10 16 -10 9 0 14 -6 11 -12 -5 -15 -44 -13 -64 3 -7 6
-10 15 -7 20 7 12 44 11 44 -1z m280 -17 c-1 -25 -2 -26 -14 -11 -12 16 -14
16 -29 0 -9 -9 -17 -12 -17 -6 0 7 46 42 58 44 1 0 2 -12 2 -27z m-70 -36 c0
-6 -9 -2 -20 8 -11 10 -20 23 -20 28 0 6 9 2 20 -8 11 -10 20 -23 20 -28z
m-230 3 c0 -14 -9 -12 -26 4 -20 21 -17 28 6 16 11 -6 20 -15 20 -20z m80 -1
c0 -3 -6 -6 -14 -6 -8 0 -11 8 -8 20 4 14 7 16 13 5 5 -7 9 -16 9 -19z m-1273
-11 c-3 -7 -5 -2 -5 12 0 14 2 19 5 13 2 -7 2 -19 0 -25z m654 -1 c-10 -9 -11
-8 -5 6 3 10 9 15 12 12 3 -3 0 -11 -7 -18z m74 3 c-3 -5 -12 -10 -18 -10 -7
0 -6 4 3 10 19 12 23 12 15 0z m705 -32 c0 -13 -17 -9 -30 7 -7 8 -16 12 -21
9 -5 -3 -6 2 -3 10 5 14 9 13 30 -2 13 -9 24 -20 24 -24z m110 13 c0 -3 -11
-6 -25 -6 -24 0 -31 6 -19 17 7 7 44 -2 44 -11z m-247 -7 c-7 -3 -9 -12 -6
-20 5 -14 -8 -19 -20 -7 -9 8 12 33 27 32 7 0 7 -2 -1 -5z m-96 -32 c-7 -10
-13 -10 -15 -3 -2 6 -9 8 -14 5 -6 -4 -8 -3 -5 2 3 5 15 10 26 10 16 0 18 -3
8 -14z m-537 -2 c0 -5 -5 -10 -11 -10 -5 0 -7 5 -4 10 3 6 8 10 11 10 2 0 4
-4 4 -10z m424 4 c25 -10 19 -22 -9 -16 -14 2 -25 8 -25 13 0 10 12 11 34 3z
m419 -53 c5 -21 4 -22 -8 -10 -7 8 -17 28 -20 44 -7 28 -6 29 7 10 8 -11 18
-31 21 -44z m-43 45 c0 -3 -4 -8 -10 -11 -5 -3 -10 -1 -10 4 0 6 5 11 10 11 6
0 10 -2 10 -4z m61 -13 c13 -16 12 -17 -3 -4 -10 7 -18 15 -18 17 0 8 8 3 21
-13z m-892 -47 c-2 -2 -13 8 -23 22 l-19 27 24 -22 c12 -12 21 -24 18 -27z
m70 33 c4 6 19 4 39 -6 39 -19 37 -28 -3 -13 -17 6 -31 7 -34 2 -12 -19 -77 0
-66 18 3 5 17 5 32 -1 17 -6 28 -6 32 0z m886 0 c4 -6 5 -12 2 -15 -7 -7 -37
7 -37 17 0 13 27 11 35 -2z m35 2 c0 -6 -4 -13 -10 -16 -5 -3 -10 1 -10 9 0 9
5 16 10 16 6 0 10 -4 10 -9z m-1050 -21 c0 -5 -2 -10 -4 -10 -3 0 -8 5 -11 10
-3 6 -1 10 4 10 6 0 11 -4 11 -10z m692 -18 c3 -11 0 -19 -7 -19 -7 0 -10 8
-7 19 2 10 6 18 7 18 1 0 5 -8 7 -18z m61 -7 c-3 -9 -8 -14 -10 -11 -3 3 -2 9
2 15 9 16 15 13 8 -4z m-98 -23 c-8 -8 -25 10 -19 20 4 6 9 5 15 -3 4 -7 6
-15 4 -17z m211 13 c3 -8 3 -19 -1 -25 -10 -16 -35 7 -28 26 7 18 22 18 29 -1z
m197 0 c-3 -9 -11 -14 -17 -12 -6 3 -20 -3 -30 -12 -11 -9 -16 -10 -12 -3 4 7
0 15 -11 20 -14 5 -8 8 22 13 22 3 43 7 47 8 4 0 5 -6 1 -14z m-1053 -7 c0 -4
-7 -8 -15 -8 -8 0 -15 4 -15 8 0 5 7 9 15 9 8 0 15 -4 15 -9z m182 -30 c-9 -9
-15 -9 -24 0 -9 9 -7 12 12 12 19 0 21 -3 12 -12z m563 -8 c-3 -5 -12 -10 -18
-10 -7 0 -6 4 3 10 19 12 23 12 15 0z m60 0 c-4 -6 -1 -17 5 -25 10 -12 9 -15
-3 -15 -19 0 -29 24 -14 39 14 14 20 14 12 1z m88 -46 c-3 -8 -9 -14 -14 -14
-4 0 -6 6 -3 14 3 8 1 17 -5 21 -6 3 -11 11 -11 17 0 6 9 3 19 -6 11 -10 17
-24 14 -32z m222 36 c3 -5 1 -10 -4 -10 -6 0 -11 5 -11 10 0 6 2 10 4 10 3 0
8 -4 11 -10z m-145 -9 c0 -5 -10 -11 -22 -14 -22 -6 -22 -6 -4 8 23 17 26 18
26 6z m114 -9 c2 -4 -4 -9 -15 -9 -10 -1 -19 2 -19 8 0 11 27 12 34 1z m-119
-42 c3 -5 1 -10 -4 -10 -6 0 -11 5 -11 10 0 6 2 10 4 10 3 0 8 -4 11 -10z m75
-20 c0 -5 -5 -10 -11 -10 -5 0 -7 5 -4 10 3 6 8 10 11 10 2 0 4 -4 4 -10z
m-110 -10 c0 -5 -4 -10 -10 -10 -5 0 -10 5 -10 10 0 6 5 10 10 10 6 0 10 -4
10 -10z m154 -6 c3 -8 2 -12 -4 -9 -6 3 -10 10 -10 16 0 14 7 11 14 -7z m-247
-66 c-3 -8 -6 -5 -6 6 -1 11 2 17 5 13 3 -3 4 -12 1 -19z m178 2 c3 -5 1 -10
-4 -10 -6 0 -11 5 -11 10 0 6 2 10 4 10 3 0 8 -4 11 -10z m50 -8 c-3 -3 -11 0
-18 7 -9 10 -8 11 6 5 10 -3 15 -9 12 -12z m-272 -7 c-3 -9 -8 -14 -10 -11 -3
3 -2 9 2 15 9 16 15 13 8 -4z m177 6 c0 -5 -7 -11 -14 -14 -10 -4 -13 -1 -9 9
6 15 23 19 23 5z"/>
<path d="M397 2266 c-7 -18 15 -27 34 -15 12 8 12 10 -1 19 -20 13 -27 12 -33
-4z"/>
<path d="M376 2225 c4 -8 11 -15 16 -15 6 0 5 6 -2 15 -7 8 -14 15 -16 15 -2
0 -1 -7 2 -15z"/>
<path d="M390 2185 c7 -8 17 -15 22 -15 6 0 5 7 -2 15 -7 8 -17 15 -22 15 -6
0 -5 -7 2 -15z"/>
<path d="M1639 2058 c-13 -50 -59 -264 -59 -277 0 -5 13 -11 28 -13 26 -4 29
-1 30 27 1 17 10 70 22 118 24 103 26 160 6 177 -12 9 -17 4 -27 -32z"/>
<path d="M275 2020 c3 -5 8 -10 11 -10 2 0 4 5 4 10 0 6 -5 10 -11 10 -5 0 -7
-4 -4 -10z"/>
<path d="M300 2000 c0 -5 5 -10 10 -10 6 0 10 5 10 10 0 6 -4 10 -10 10 -5 0
-10 -4 -10 -10z"/>
<path d="M1 1954 c0 -11 3 -14 6 -6 3 7 2 16 -1 19 -3 4 -6 -2 -5 -13z"/>
<path d="M300 1964 c0 -2 9 -8 20 -14 11 -6 20 -7 20 -2 0 6 -9 12 -20 15 -11
3 -20 3 -20 1z"/>
<path d="M17 1902 c-20 -22 -22 -38 -4 -45 10 -4 10 -6 0 -6 -9 -1 -13 -18
-13 -51 0 -64 23 -66 70 -6 14 18 13 18 -10 11 -14 -4 -29 -13 -33 -19 -4 -6
-6 8 -4 31 2 23 -1 47 -7 53 -7 7 -6 10 2 10 6 0 16 9 22 20 13 25 -1 26 -23
2z"/>
<path d="M220 1831 c0 -5 5 -13 10 -16 6 -3 10 -2 10 4 0 5 -4 13 -10 16 -5 3
-10 2 -10 -4z"/>
<path d="M180 1686 c0 -2 7 -9 15 -16 9 -7 15 -8 15 -2 0 5 -7 12 -15 16 -8 3
-15 4 -15 2z"/>
<path d="M758 1683 c7 -3 16 -2 19 1 4 3 -2 6 -13 5 -11 0 -14 -3 -6 -6z"/>
<path d="M73 1653 c-17 -6 -16 -23 1 -23 8 0 16 7 20 15 6 15 1 17 -21 8z"/>
<path d="M1161 1640 c-196 -70 -291 -226 -294 -480 -1 -177 70 -299 189 -324
28 -6 32 -4 37 21 3 15 26 127 51 248 25 121 46 222 46 224 0 2 -11 -6 -24
-19 -24 -22 -25 -22 -23 -2 0 11 5 18 9 16 5 -3 14 9 20 27 10 28 12 30 18 14
5 -14 9 -8 14 24 4 24 4 46 1 49 -3 3 -5 -2 -5 -10 0 -20 -68 -81 -81 -73 -5
4 -6 12 -2 18 11 18 10 30 -5 46 -11 11 -10 18 4 40 9 14 11 20 3 14 -19 -19
-45 -17 -30 1 9 11 9 15 -1 19 -10 4 -10 6 0 6 6 1 12 9 12 20 0 13 16 25 51
40 55 24 78 22 80 -6 1 -18 28 72 29 95 0 17 -36 14 -99 -8z m-107 -221 c-8
-13 -21 -11 -27 5 -4 10 0 12 14 9 10 -3 16 -9 13 -14z m-42 -34 c-12 -22 -27
-2 -18 22 5 12 10 13 17 6 7 -7 8 -17 1 -28z"/>
<path d="M1550 1654 c0 -4 -38 -186 -85 -406 -47 -219 -85 -403 -85 -408 0
-11 30 -13 54 -4 9 3 16 14 16 24 0 12 8 17 29 16 19 -1 27 -5 23 -14 -7 -20
69 21 113 59 38 34 94 106 62 80 -12 -10 -21 -11 -28 -4 -7 7 -5 15 9 24 27
20 36 53 17 69 -8 7 -15 20 -15 29 0 9 -11 21 -25 28 -14 6 -25 7 -25 2 0 -5
-7 -9 -15 -9 -30 0 -14 -20 18 -21 17 -1 25 -3 15 -6 -18 -5 -33 -33 -18 -33
6 0 10 -6 10 -12 0 -7 -12 0 -25 15 -23 26 -25 27 -25 7 0 -15 -10 -25 -30
-33 -16 -6 -30 -14 -30 -17 0 -12 48 -59 54 -53 3 3 6 2 6 -3 0 -17 -68 -13
-83 5 -12 13 -13 24 -2 66 7 28 24 106 39 175 77 361 69 335 95 338 33 5 97
-44 120 -92 29 -59 43 -140 37 -216 -5 -54 -4 -59 5 -30 5 19 10 73 11 120 2
145 -42 233 -144 284 -49 24 -98 34 -98 20z m80 -619 c0 -8 -7 -15 -15 -15
-10 0 -12 -6 -8 -17 6 -17 6 -17 -10 -1 -25 25 -21 48 8 48 16 0 25 -6 25 -15z
m-132 -77 c17 -17 15 -31 -4 -24 -13 5 -15 1 -10 -19 7 -27 6 -28 -16 -20 -9
4 -13 17 -10 40 4 36 19 44 40 23z m112 -6 c0 -13 -12 -22 -22 -16 -10 6 -1
24 13 24 5 0 9 -4 9 -8z m-83 -34 c-3 -8 -6 -5 -6 6 -1 11 2 17 5 13 3 -3 4
-12 1 -19z"/>
<path d="M1221 1504 c0 -11 3 -14 6 -6 3 7 2 16 -1 19 -3 4 -6 -2 -5 -13z"/>
<path d="M1211 1464 c0 -11 3 -14 6 -6 3 7 2 16 -1 19 -3 4 -6 -2 -5 -13z"/>
<path d="M1610 1190 c0 -5 7 -10 16 -10 8 0 12 5 9 10 -3 6 -10 10 -16 10 -5
0 -9 -4 -9 -10z"/>
<path d="M1547 1093 c-4 -3 -7 -11 -7 -17 0 -6 5 -5 12 2 6 6 9 14 7 17 -3 3
-9 2 -12 -2z"/>
<path d="M2257 813 c-3 -5 1 -14 9 -21 12 -10 14 -10 14 2 0 17 -16 30 -23 19z"/>
<path d="M2342 793 c6 -7 13 -11 16 -8 3 3 11 0 19 -6 7 -6 13 -8 13 -5 0 14
-25 33 -42 33 -14 0 -15 -3 -6 -14z"/>
<path d="M2115 790 c-3 -6 1 -17 9 -26 22 -21 20 -34 -4 -34 -11 0 -20 -4 -20
-8 0 -14 23 -32 42 -32 10 0 18 -4 18 -10 0 -5 5 -10 12 -10 9 0 9 3 0 12 -14
14 -16 42 -2 33 5 -3 18 -1 27 4 15 9 14 10 -10 11 -35 0 -45 24 -21 53 19 21
19 21 0 7 -15 -12 -20 -12 -23 -2 -6 15 -19 16 -28 2z"/>
<path d="M2240 761 c0 -3 8 -18 18 -33 12 -18 22 -24 31 -19 8 5 11 13 7 19
-3 6 0 12 6 15 7 2 10 7 7 11 -8 8 -69 15 -69 7z"/>
<path d="M1890 752 c0 -14 11 -21 26 -15 21 8 17 23 -6 23 -11 0 -20 -4 -20
-8z"/>
<path d="M2075 720 c3 -5 8 -10 11 -10 2 0 4 5 4 10 0 6 -5 10 -11 10 -5 0 -7
-4 -4 -10z"/>
<path d="M2210 700 c0 -12 28 -25 36 -17 3 3 -4 10 -15 17 -15 7 -21 7 -21 0z"/>
<path d="M1921 681 c-8 -5 -9 -11 -3 -15 5 -3 12 1 16 9 6 17 6 18 -13 6z"/>
<path d="M2510 560 c0 -5 5 -10 10 -10 6 0 10 5 10 10 0 6 -4 10 -10 10 -5 0
-10 -4 -10 -10z"/>
</g>
</svg>
